<svg width="51" height="50" viewBox="0 0 41 40" fill="none" xmlns="http://www.w3.org/2000/svg">
<rect x="1" y="0.5" width="39" height="39" rx="19.5" fill="#00171A"/>
<rect x="1" y="0.5" width="39" height="39" rx="19.5" stroke="#00393D"/>
<path d="M20.4962 10.8333C22.4602 10.8333 24.4166 10.8333 26.3806 10.8333C28.2529 10.8333 29.6667 12.2833 29.6667 14.1958C29.6667 18.0757 29.6667 21.9555 29.6667 25.8354C29.6667 27.7009 28.2452 29.1666 26.4264 29.1666C22.4755 29.1666 18.5322 29.1666 14.5812 29.1666C12.7624 29.1666 11.3333 27.7009 11.3333 25.8432C11.3333 21.9399 11.3333 18.0286 11.3333 14.1253C11.3333 12.3147 12.77 10.8333 14.5354 10.8333C16.5223 10.8333 18.5092 10.8333 20.4962 10.8333ZM20.5115 18.5538C20.6184 18.7811 20.6796 18.9065 20.7331 19.0398C21.4514 20.7563 22.1698 22.465 22.8729 24.1815C23.0028 24.4951 23.1862 24.6518 23.5377 24.6362C24.172 24.6126 24.8139 24.6362 25.4482 24.6283C25.8456 24.6283 25.9526 24.4637 25.7998 24.0875C24.577 21.1247 23.3467 18.154 22.1316 15.1912C22.0017 14.8699 21.803 14.7288 21.4591 14.7445C20.8095 14.7601 20.1599 14.7601 19.5103 14.7445C19.197 14.7366 19.006 14.8542 18.8913 15.152C17.6686 18.1227 16.4459 21.109 15.2308 24.0875C15.0703 24.4872 15.1544 24.6283 15.567 24.6283C17.4546 24.6283 19.3346 24.6283 21.2222 24.6283C21.6043 24.6283 21.7189 24.4637 21.5737 24.111C21.375 23.6172 21.1687 23.1234 20.9318 22.6453C20.8783 22.5355 20.7025 22.4415 20.5726 22.4337C20.1676 22.4101 19.7549 22.4258 19.3499 22.4258C18.9295 22.4258 18.8913 22.3709 19.0518 21.9712C19.4721 20.9522 19.8925 19.9255 20.3128 18.9065C20.3586 18.8203 20.4121 18.7419 20.5115 18.5538Z" fill="#66FFF0"/>
</svg>