<svg
												width="50"
												height="50"
												viewBox="0 0 58 58"
												fill="none"
												xmlns="http://www.w3.org/2000/svg"
											>
												<g clip-path="url(#clip0_1_300)">
													<rect
														x="1"
														y="1"
														width="56"
														height="56"
														rx="28"
														fill="#002629"
													/>
													<path
														d="M1 12.2H57"
														stroke="#00474D"
														stroke-width="0.6"
													/>
													<path
														d="M45.7998 1L45.7998 57"
														stroke="#00474D"
														stroke-width="0.6"
													/>
													<path
														d="M45.7998 8L45.7998 16.4"
														stroke="url(#paint0_linear_1_300)"
														stroke-width="0.6"
													/>
													<path
														d="M50 12.2L41.6 12.2"
														stroke="url(#paint1_linear_1_300)"
														stroke-width="0.6"
													/>
													<path
														d="M1 45.8H57"
														stroke="#00474D"
														stroke-width="0.6"
													/>
													<path
														d="M12.2002 1L12.2002 57"
														stroke="#00474D"
														stroke-width="0.6"
													/>
													<path
														d="M45.7998 41.6001L45.7998 50.0001"
														stroke="url(#paint2_linear_1_300)"
														stroke-width="0.6"
													/>
													<path
														d="M50 45.8L41.6 45.8"
														stroke="url(#paint3_linear_1_300)"
														stroke-width="0.6"
													/>
													<path
														d="M12.2002 41.6001L12.2002 50.0001"
														stroke="url(#paint4_linear_1_300)"
														stroke-width="0.6"
													/>
													<path
														d="M16.3999 45.8L7.9999 45.8"
														stroke="url(#paint5_linear_1_300)"
														stroke-width="0.6"
													/>
													<path
														d="M12.2002 8L12.2002 16.4"
														stroke="url(#paint6_linear_1_300)"
														stroke-width="0.6"
													/>
													<path
														d="M16.3999 12.2L7.9999 12.2"
														stroke="url(#paint7_linear_1_300)"
														stroke-width="0.6"
													/>
													<path
														d="M34.8994 39C37.1086 39 38.8994 37.2091 38.8994 35C38.8994 32.7909 37.1086 31 34.8994 31H34.6797L28.878 36.798C28.636 37.0399 28.5 37.3391 28.5 37.6813C28.5 38.3936 29.0774 39 29.7897 39H34.8994Z"
														fill="#66FFF0"
													/>
													<path
														d="M30.2839 21.9588L29.2291 23.0136C28.7633 23.4811 28.5012 24.1138 28.5 24.7738L28.5 33.0119C28.5 34.0666 28.5 34.5939 28.8135 34.7199C29.1271 34.8459 29.492 34.4653 30.2219 33.704L36.0599 27.6144C37.5819 26.0269 37.5554 23.5139 36.0003 21.9588C34.4218 20.3803 31.8624 20.3803 30.2839 21.9588Z"
														fill="#66FFF0"
													/>
													<path
														fill-rule="evenodd"
														clip-rule="evenodd"
														d="M27 23V35C27 37.2091 25.2091 39 23 39C20.7909 39 19 37.2091 19 35V23C19 20.7909 20.7909 19 23 19C25.2091 19 27 20.7909 27 23ZM23 36C23.5523 36 24 35.5523 24 35C24 34.4477 23.5523 34 23 34C22.4477 34 22 34.4477 22 35C22 35.5523 22.4477 36 23 36Z"
														fill="#66FFF0"
													/>
												</g>
												<rect
													x="0.5"
													y="0.5"
													width="57"
													height="57"
													rx="28.5"
													stroke="#00393D"
												/>
												<defs>
													<linearGradient
														id="paint0_linear_1_300"
														x1="45.7998"
														y1="16.4"
														x2="45.7998"
														y2="8"
														gradientUnits="userSpaceOnUse"
													>
														<stop stop-color="#19FFE9" stop-opacity="0" />
														<stop offset="0.50284" stop-color="#19FFE9" />
														<stop
															offset="1"
															stop-color="#19FFE9"
															stop-opacity="0"
														/>
													</linearGradient>
													<linearGradient
														id="paint1_linear_1_300"
														x1="41.6"
														y1="12.2"
														x2="50"
														y2="12.2"
														gradientUnits="userSpaceOnUse"
													>
														<stop stop-color="#19FFE9" stop-opacity="0" />
														<stop offset="0.50284" stop-color="#19FFE9" />
														<stop
															offset="1"
															stop-color="#19FFE9"
															stop-opacity="0"
														/>
													</linearGradient>
													<linearGradient
														id="paint2_linear_1_300"
														x1="45.7998"
														y1="50.0001"
														x2="45.7998"
														y2="41.6001"
														gradientUnits="userSpaceOnUse"
													>
														<stop stop-color="#19FFE9" stop-opacity="0" />
														<stop offset="0.50284" stop-color="#19FFE9" />
														<stop
															offset="1"
															stop-color="#19FFE9"
															stop-opacity="0"
														/>
													</linearGradient>
													<linearGradient
														id="paint3_linear_1_300"
														x1="41.6"
														y1="45.8"
														x2="50"
														y2="45.8001"
														gradientUnits="userSpaceOnUse"
													>
														<stop stop-color="#19FFE9" stop-opacity="0" />
														<stop offset="0.50284" stop-color="#19FFE9" />
														<stop
															offset="1"
															stop-color="#19FFE9"
															stop-opacity="0"
														/>
													</linearGradient>
													<linearGradient
														id="paint4_linear_1_300"
														x1="12.2002"
														y1="50.0001"
														x2="12.2002"
														y2="41.6001"
														gradientUnits="userSpaceOnUse"
													>
														<stop stop-color="#19FFE9" stop-opacity="0" />
														<stop offset="0.50284" stop-color="#19FFE9" />
														<stop
															offset="1"
															stop-color="#19FFE9"
															stop-opacity="0"
														/>
													</linearGradient>
													<linearGradient
														id="paint5_linear_1_300"
														x1="7.9999"
														y1="45.8"
														x2="16.3999"
														y2="45.8001"
														gradientUnits="userSpaceOnUse"
													>
														<stop stop-color="#19FFE9" stop-opacity="0" />
														<stop offset="0.50284" stop-color="#19FFE9" />
														<stop
															offset="1"
															stop-color="#19FFE9"
															stop-opacity="0"
														/>
													</linearGradient>
													<linearGradient
														id="paint6_linear_1_300"
														x1="12.2002"
														y1="16.4"
														x2="12.2002"
														y2="8"
														gradientUnits="userSpaceOnUse"
													>
														<stop stop-color="#19FFE9" stop-opacity="0" />
														<stop offset="0.50284" stop-color="#19FFE9" />
														<stop
															offset="1"
															stop-color="#19FFE9"
															stop-opacity="0"
														/>
													</linearGradient>
													<linearGradient
														id="paint7_linear_1_300"
														x1="7.9999"
														y1="12.2"
														x2="16.3999"
														y2="12.2"
														gradientUnits="userSpaceOnUse"
													>
														<stop stop-color="#19FFE9" stop-opacity="0" />
														<stop offset="0.50284" stop-color="#19FFE9" />
														<stop
															offset="1"
															stop-color="#19FFE9"
															stop-opacity="0"
														/>
													</linearGradient>
													<clipPath id="clip0_1_300">
														<rect
															x="1"
															y="1"
															width="56"
															height="56"
															rx="28"
															fill="white"
														/>
													</clipPath>
												</defs>
											</svg>