<svg width="51" height="50" viewBox="0 0 41 40" fill="none" xmlns="http://www.w3.org/2000/svg">
<rect x="1" y="0.5" width="39" height="39" rx="19.5" fill="#00171A"/>
<rect x="1" y="0.5" width="39" height="39" rx="19.5" stroke="#00393D"/>
<g clip-path="url(#clip0_1_189)">
<path fill-rule="evenodd" clip-rule="evenodd" d="M14.6032 16.4426C14.5983 16.5544 14.5935 16.6662 14.5881 16.778C14.6001 16.786 14.6121 16.794 14.6281 16.798L20.0897 10.8812L20.0658 10.8333C19.7903 10.8652 19.5148 10.8971 19.2393 10.9251C18.0082 11.0587 16.7772 11.189 15.549 11.319L15.549 11.319L15.1591 11.3603C14.8758 11.3917 14.8755 11.3961 14.8603 11.6751L14.8596 11.6876C14.8237 12.3682 14.7858 13.0487 14.7479 13.7293L14.7478 13.7298C14.7099 14.4105 14.672 15.0912 14.636 15.7719C14.6227 15.9955 14.613 16.2191 14.6032 16.4426ZM26.6376 16.8538C25.3675 15.472 24.116 14.1143 22.8704 12.763C22.2914 12.135 21.7137 11.5082 21.136 10.8811C21.14 10.8732 21.143 10.8662 21.146 10.8592C21.149 10.8522 21.152 10.8452 21.1559 10.8372C21.5233 10.8732 21.8906 10.9091 22.2539 10.945C22.6571 10.9876 23.0603 11.0306 23.4636 11.0737L23.4636 11.0737L23.4636 11.0737L23.4637 11.0737C24.2701 11.1597 25.0766 11.2458 25.883 11.3283L25.903 11.3303C26.1274 11.3529 26.2383 11.364 26.2959 11.4253C26.3523 11.4852 26.3577 11.5931 26.3684 11.8063V11.8064L26.3701 11.8393C26.4323 13.0748 26.502 14.3066 26.5719 15.5419L26.5719 15.5421L26.5719 15.5423L26.5719 15.5425L26.5777 15.6441C26.5866 15.8145 26.5947 15.9841 26.603 16.1592L26.603 16.1597C26.6135 16.3784 26.6243 16.6057 26.6376 16.8538ZM22.3901 12.7877L22.3877 12.7851C21.7982 12.1447 21.2084 11.5039 20.617 10.8612C19.7215 11.8323 18.8311 12.7983 17.9406 13.7643L17.9401 13.7648C16.9014 14.8916 15.8628 16.0184 14.816 17.1533H26.4061C25.0603 15.6885 23.7261 14.2391 22.3901 12.7877ZM14.6801 17.5566C16.6643 21.4332 18.6326 25.282 20.6169 29.1666C22.6011 25.282 24.5654 21.4332 26.5417 17.5566H14.6801ZM10.5996 17.5485H12.0888C12.2508 17.5485 12.413 17.5488 12.5753 17.549H12.5757H12.576H12.5764H12.5768H12.5772H12.5772H12.5772H12.5773H12.5773H12.5774C13.0666 17.5498 13.557 17.5505 14.0451 17.5445C14.1968 17.5405 14.2807 17.5844 14.3525 17.7282C15.4385 19.8601 16.5244 21.9921 17.6144 24.1241L19.5427 27.885C19.5747 27.9488 19.6066 28.0167 19.6026 28.1125C16.5963 24.6112 13.586 21.1098 10.5757 17.6084L10.5996 17.5485ZM21.9803 27.3001L21.9796 27.3016C21.8461 27.5636 21.7126 27.8256 21.5791 28.0886C21.5911 28.0966 21.6031 28.1046 21.619 28.1205L30.65 17.6044C30.5541 17.5565 30.4863 17.5565 30.4224 17.5565C30.1537 17.5565 29.8853 17.5568 29.617 17.557C28.813 17.5578 28.0107 17.5585 27.2085 17.5525C27.0328 17.5485 26.941 17.6004 26.8571 17.7601C25.7454 19.9389 24.6315 22.1154 23.517 24.293L23.5164 24.2941L23.5158 24.2953L23.5152 24.2964L23.5146 24.2976L22.3816 26.5116C22.2481 26.7746 22.1146 27.0366 21.9811 27.2986L21.9803 27.3001ZM14.3478 14.332L14.3478 14.3321C14.2972 15.2733 14.2465 16.2161 14.197 17.1613H10.5C11.8215 15.3886 13.119 13.6479 14.4166 11.9032C14.4266 11.9072 14.4366 11.9102 14.4465 11.9132C14.4565 11.9162 14.4665 11.9192 14.4765 11.9232C14.4342 12.7251 14.391 13.528 14.3478 14.332ZM27.0326 17.1653H30.7216C29.3961 15.3887 28.0986 13.644 26.801 11.8953C26.791 11.8993 26.782 11.9032 26.7731 11.9072C26.7641 11.9112 26.7551 11.9152 26.7451 11.9192L27.0326 17.1653Z" fill="#66FFF0"/>
</g>
<defs>
<clipPath id="clip0_1_189">
<rect width="20" height="20" fill="white" transform="translate(10.5 10)"/>
</clipPath>
</defs>
</svg>
