
<svg width="51" height="50" viewBox="0 0 41 40" fill="none" xmlns="http://www.w3.org/2000/svg">
<rect x="1" y="0.5" width="39" height="39" rx="19.5" fill="#00171A"/>
<rect x="1" y="0.5" width="39" height="39" rx="19.5" stroke="#00393D"/>
<path fill-rule="evenodd" clip-rule="evenodd" d="M19.5631 10.8323C19.3927 10.8328 19.2222 10.8333 19.0511 10.8333V10.8468C18.8939 10.8468 18.7363 10.8446 18.5784 10.8424C18.2307 10.8376 17.8821 10.8327 17.5357 10.8513C15.9978 10.9277 14.7522 12.1823 14.6668 13.7202C14.5814 15.3705 15.809 16.8904 17.6482 16.9534C18.3743 16.977 19.1025 16.9599 19.83 16.9429C20.2107 16.9339 20.5913 16.925 20.9713 16.9219C21.2828 16.9199 21.5953 16.9215 21.9082 16.923C22.2999 16.925 22.6923 16.9269 23.0847 16.9219C23.2117 16.9197 23.3393 16.9222 23.4669 16.9247C23.85 16.9323 24.2336 16.9399 24.6047 16.8185C24.843 16.7421 25.0858 16.6566 25.3017 16.5352C25.3967 16.4799 25.4809 16.4062 25.5655 16.3321C25.6529 16.2556 25.7407 16.1786 25.8413 16.1215C26.1277 15.9615 26.2818 15.6908 26.4309 15.429C26.462 15.3743 26.4929 15.3199 26.5248 15.2671C26.624 15.1048 26.6709 14.9123 26.718 14.7192C26.7414 14.6235 26.7648 14.5276 26.7946 14.4352C27.0149 13.7607 26.7856 13.1446 26.5428 12.5376C26.3989 12.1823 26.1336 11.89 25.8548 11.6382C25.6254 11.4314 25.3466 11.265 25.0633 11.1346C24.6451 10.9412 24.1954 10.8648 23.7323 10.8603L20.5845 10.8333C20.243 10.8303 19.9034 10.8313 19.5631 10.8323ZM20.7644 20.6992V20.4339C21.1871 22.4035 22.806 23.1634 24.0786 23.0645C25.612 22.9296 26.7676 21.7514 26.8935 20.227C27.0105 18.8061 26.0212 17.4345 24.6227 17.0613C23.7278 16.823 22.9004 16.9894 22.145 17.4885C21.385 17.9877 20.9533 18.7206 20.7689 19.6155V19.3727C20.7689 19.1928 20.7687 19.0129 20.7684 18.8331C20.7675 18.2934 20.7667 17.7538 20.7734 17.2142C20.7779 17.0298 20.724 16.9714 20.5351 16.9714C20.0854 16.9736 19.6357 16.9736 19.186 16.9736C18.7364 16.9736 18.2867 16.9736 17.837 16.9759C17.6212 16.9759 17.4009 16.9894 17.1895 17.0298C15.5887 17.3311 14.5184 18.833 14.7253 20.3934C14.9052 21.747 15.9664 22.8397 17.3199 23.0105C17.348 23.0137 17.376 23.0254 17.4175 23.0428C17.4359 23.0505 17.4569 23.0593 17.4818 23.069C17.4538 23.0789 17.4324 23.087 17.4153 23.0934C17.3856 23.1047 17.3685 23.1111 17.3514 23.114C15.755 23.2714 14.4825 24.8272 14.7118 26.5405C14.9546 28.3257 16.7803 29.5533 18.534 29.0542C19.8741 28.6765 20.7734 27.4893 20.7734 26.0953C20.7734 24.2966 20.7689 22.4979 20.7644 20.6992Z" fill="#66FFF0"/>
</svg>
