<svg width="650" height="550" viewBox="0 0 610 503" fill="none" xmlns="http://www.w3.org/2000/svg">
<path d="M-114 -33.8695H-113.956L-113.913 -33.8771C-60.3188 -43.3601 -26.2643 -33.5363 -3.35944 -12.4778C19.5792 8.61177 31.4321 41.0499 40.4184 77.0244C43.6763 90.0667 46.5533 103.554 49.4473 117.122C50.5434 122.26 51.6419 127.41 52.7645 132.552C56.8491 151.26 61.2501 169.845 67.0031 187.3C78.5079 222.205 95.4423 252.661 126.155 270.572C145.773 282.013 166.101 295.759 180.074 312.104C194.035 328.436 201.614 347.312 195.859 369.071C159.561 506.326 34.5883 607.5 -114 607.5C-291.007 607.5 -434.5 463.925 -434.5 286.815C-434.5 109.706 -291.007 -33.8695 -114 -33.8695Z" fill="url(#paint0_linear_1_42)" fill-opacity="0.1"/>
<path d="M-114 -33.8695H-113.956L-113.913 -33.8771C-60.3188 -43.3601 -26.2643 -33.5363 -3.35944 -12.4778C19.5792 8.61177 31.4321 41.0499 40.4184 77.0244C43.6763 90.0667 46.5533 103.554 49.4473 117.122C50.5434 122.26 51.6419 127.41 52.7645 132.552C56.8491 151.26 61.2501 169.845 67.0031 187.3C78.5079 222.205 95.4423 252.661 126.155 270.572C145.773 282.013 166.101 295.759 180.074 312.104C194.035 328.436 201.614 347.312 195.859 369.071C159.561 506.326 34.5883 607.5 -114 607.5C-291.007 607.5 -434.5 463.925 -434.5 286.815C-434.5 109.706 -291.007 -33.8695 -114 -33.8695Z" stroke="url(#paint1_linear_1_42)"/>
<path d="M-114 -33.8695H-113.956L-113.913 -33.8771C-60.3188 -43.3601 -26.2643 -33.5363 -3.35944 -12.4778C19.5792 8.61177 31.4321 41.0499 40.4184 77.0244C43.6763 90.0667 46.5533 103.554 49.4473 117.122C50.5434 122.26 51.6419 127.41 52.7645 132.552C56.8491 151.26 61.2501 169.845 67.0031 187.3C78.5079 222.205 95.4423 252.661 126.155 270.572C145.773 282.013 166.101 295.759 180.074 312.104C194.035 328.436 201.614 347.312 195.859 369.071C159.561 506.326 34.5883 607.5 -114 607.5C-291.007 607.5 -434.5 463.925 -434.5 286.815C-434.5 109.706 -291.007 -33.8695 -114 -33.8695Z" stroke="url(#paint2_radial_1_42)" stroke-opacity="0.3"/>
<path d="M722 -28.8751H721.956L721.913 -28.8827C668.319 -38.351 634.265 -28.5425 611.36 -7.51695C588.421 13.5395 576.568 45.9266 567.582 81.8449C564.324 94.8676 561.447 108.335 558.553 121.882C557.457 127.012 556.358 132.153 555.236 137.286C551.151 155.965 546.751 174.521 540.998 191.949C529.493 226.8 512.559 257.209 481.848 275.093C462.223 286.521 441.894 300.262 427.926 316.602C413.969 332.93 406.401 351.804 412.172 373.557C448.51 510.54 573.453 611.5 722 611.5C899.008 611.5 1042.5 468.147 1042.5 291.312C1042.5 114.478 899.008 -28.8751 722 -28.8751Z" fill="url(#paint3_linear_1_42)" fill-opacity="0.1"/>
<path d="M722 -28.8751H721.956L721.913 -28.8827C668.319 -38.351 634.265 -28.5425 611.36 -7.51695C588.421 13.5395 576.568 45.9266 567.582 81.8449C564.324 94.8676 561.447 108.335 558.553 121.882C557.457 127.012 556.358 132.153 555.236 137.286C551.151 155.965 546.751 174.521 540.998 191.949C529.493 226.8 512.559 257.209 481.848 275.093C462.223 286.521 441.894 300.262 427.926 316.602C413.969 332.93 406.401 351.804 412.172 373.557C448.51 510.54 573.453 611.5 722 611.5C899.008 611.5 1042.5 468.147 1042.5 291.312C1042.5 114.478 899.008 -28.8751 722 -28.8751Z" stroke="url(#paint4_linear_1_42)"/>
<path d="M722 -28.8751H721.956L721.913 -28.8827C668.319 -38.351 634.265 -28.5425 611.36 -7.51695C588.421 13.5395 576.568 45.9266 567.582 81.8449C564.324 94.8676 561.447 108.335 558.553 121.882C557.457 127.012 556.358 132.153 555.236 137.286C551.151 155.965 546.751 174.521 540.998 191.949C529.493 226.8 512.559 257.209 481.848 275.093C462.223 286.521 441.894 300.262 427.926 316.602C413.969 332.93 406.401 351.804 412.172 373.557C448.51 510.54 573.453 611.5 722 611.5C899.008 611.5 1042.5 468.147 1042.5 291.312C1042.5 114.478 899.008 -28.8751 722 -28.8751Z" stroke="url(#paint5_radial_1_42)" stroke-opacity="0.3"/>
<defs>
<linearGradient id="paint0_linear_1_42" x1="-114" y1="-34.3695" x2="-114" y2="608" gradientUnits="userSpaceOnUse">
<stop offset="0.202289" stop-color="#00474D"/>
<stop offset="0.607154" stop-color="#00474D" stop-opacity="0"/>
</linearGradient>
<linearGradient id="paint1_linear_1_42" x1="-114" y1="-34.3695" x2="-114" y2="608" gradientUnits="userSpaceOnUse">
<stop stop-color="#00393D"/>
<stop offset="0.447233" stop-color="#00393D" stop-opacity="0"/>
</linearGradient>
<radialGradient id="paint2_radial_1_42" cx="0" cy="0" r="1" gradientUnits="userSpaceOnUse" gradientTransform="translate(73.511 201.035) rotate(96.5488) scale(58.3507 57.9902)">
<stop stop-color="#19FDE7"/>
<stop offset="1" stop-color="#19FDE7" stop-opacity="0"/>
</radialGradient>
<linearGradient id="paint3_linear_1_42" x1="722" y1="-29.3751" x2="722" y2="612" gradientUnits="userSpaceOnUse">
<stop offset="0.202289" stop-color="#00474D"/>
<stop offset="0.607154" stop-color="#00474D" stop-opacity="0"/>
</linearGradient>
<linearGradient id="paint4_linear_1_42" x1="722" y1="-29.3751" x2="722" y2="612" gradientUnits="userSpaceOnUse">
<stop stop-color="#00393D"/>
<stop offset="0.447233" stop-color="#00393D" stop-opacity="0"/>
</linearGradient>
<radialGradient id="paint5_radial_1_42" cx="0" cy="0" r="1" gradientUnits="userSpaceOnUse" gradientTransform="translate(534.489 205.665) rotate(83.4411) scale(58.2615 57.9891)">
<stop stop-color="#19FDE7"/>
<stop offset="1" stop-color="#19FDE7" stop-opacity="0"/>
</radialGradient>
</defs>
</svg>
