<svg width="51" height="50" viewBox="0 0 41 40" fill="none" xmlns="http://www.w3.org/2000/svg">
<rect x="1" y="0.5" width="39" height="39" rx="19.5" fill="#00171A"/>
<rect x="1" y="0.5" width="39" height="39" rx="19.5" stroke="#00393D"/>
<path fill-rule="evenodd" clip-rule="evenodd" d="M14.001 14.0846C14.0125 14.9404 14.7412 15.6343 15.6201 15.6227C16.4875 15.6227 17.2161 14.9057 17.2161 14.0614C17.2161 13.1825 16.4759 12.4886 15.5623 12.5001C14.6833 12.5117 13.9779 13.2288 14.001 14.0846ZM29.0752 25.1814C29.1873 24.9611 29.3024 24.7349 29.4289 24.5048C29.3483 24.4726 29.2722 24.4421 29.1997 24.413C28.8557 24.2751 28.5895 24.1684 28.2839 24.0538C28.2241 24.1773 28.1699 24.2981 28.1168 24.4162C28.0159 24.6407 27.9195 24.8553 27.7982 25.06C27.5669 25.4416 27.2778 25.8695 26.7573 25.6498C26.2813 25.4442 26.3923 24.9856 26.4843 24.6053C26.4907 24.5791 26.4969 24.5533 26.5029 24.528C26.5904 24.1583 26.6984 23.7927 26.8063 23.4278C26.9548 22.925 27.103 22.4235 27.1968 21.9142C27.3587 21.0237 27.5091 20.0985 27.4512 19.1964C27.3703 17.7508 26.1675 16.7446 24.7334 16.8949C24.1089 16.9643 23.4612 17.2881 22.9061 17.6235C22.5004 17.8636 22.1481 18.1867 21.8533 18.457C21.7363 18.5643 21.6284 18.6632 21.5298 18.7454C21.5898 18.4629 21.675 18.0347 21.7716 17.5499C21.8055 17.3797 21.8407 17.2025 21.8768 17.0221C20.5699 17.0221 19.3787 17.0221 18.1875 17.0337C18.0719 17.0337 17.8752 17.1494 17.8405 17.2419C17.7093 17.6685 17.5955 18.1067 17.4744 18.5731C17.4247 18.7642 17.3739 18.96 17.3201 19.1617H19.1821C19.0634 19.6297 18.952 20.0935 18.8417 20.553C18.5866 21.6153 18.3369 22.655 18.014 23.6721C17.6671 24.794 16.8575 25.5341 15.6432 25.696C14.9492 25.7886 14.6717 25.5573 14.7642 24.8749C14.876 24.1433 15.0503 23.4205 15.2243 22.6989C15.2483 22.5992 15.2723 22.4996 15.2962 22.4C15.5381 21.4259 15.7836 20.4553 16.0325 19.4708C16.2358 18.667 16.4414 17.8539 16.6493 17.0221C15.1921 17.0221 13.7927 17.0221 12.3933 17.0337C12.3124 17.0337 12.1736 17.1378 12.1505 17.2188C12.0276 17.661 11.9106 18.1033 11.787 18.5703C11.7361 18.7627 11.684 18.9592 11.63 19.1617H13.4573C13.4091 19.3548 13.3612 19.545 13.3139 19.7329C13.112 20.5354 12.9205 21.2962 12.7519 22.0646C12.6957 22.3218 12.635 22.579 12.5742 22.8366C12.3972 23.5867 12.2193 24.34 12.1505 25.1062C12.0348 26.2859 12.7056 27.1533 13.6886 27.3846C14.822 27.6506 15.8282 27.373 16.684 26.5981C16.8787 26.4259 17.054 26.2343 17.2413 26.0296C17.3433 25.9181 17.4488 25.8027 17.563 25.6845C17.4994 25.962 17.4387 26.228 17.3779 26.494C17.3172 26.76 17.2565 27.026 17.1929 27.3036C17.3906 27.3036 17.5829 27.3029 17.7714 27.3021C18.3218 27.3 18.8387 27.2979 19.3556 27.3152C19.7141 27.3267 19.8529 27.2227 19.9338 26.8641C20.3964 24.9212 20.8937 22.9899 21.391 21.0585L21.3911 21.0584C21.5645 20.3876 21.8421 19.74 22.4551 19.3352C23.0218 18.9535 23.6463 18.8841 24.2592 19.208C24.8144 19.4971 24.8953 20.0291 24.8606 20.5958C24.8491 20.8271 24.8144 21.0584 24.7565 21.2781C24.6617 21.643 24.5622 22.0067 24.4629 22.3699C24.2473 23.1582 24.0323 23.9444 23.866 24.7361C23.6347 25.8348 24.1551 26.8526 25.0457 27.2574C26.1906 27.7778 27.6363 27.454 28.3649 26.4247C28.6355 26.0458 28.8492 25.6257 29.0752 25.1814Z" fill="#66FFF0"/>
</svg>
