<svg width="115" height="41" viewBox="0 0 115 41" fill="none" xmlns="http://www.w3.org/2000/svg">
<path d="M102.961 28.8361C101.468 28.8361 100.254 28.5001 99.3211 27.8281C98.3877 27.1561 97.8203 26.2116 97.6187 24.9945L100.374 24.5689C100.516 25.1662 100.829 25.6366 101.315 25.9801C101.8 26.3236 102.412 26.4953 103.151 26.4953C103.801 26.4953 104.301 26.3684 104.652 26.1145C105.011 25.8532 105.19 25.4985 105.19 25.0505C105.19 24.7742 105.123 24.554 104.988 24.3897C104.861 24.218 104.578 24.0537 104.137 23.8969C103.697 23.7401 103.021 23.5422 102.11 23.3033C101.094 23.0345 100.288 22.747 99.6906 22.4409C99.0933 22.1273 98.664 21.7577 98.4026 21.3321C98.1413 20.9065 98.0107 20.3913 98.0107 19.7865C98.0107 19.0324 98.2085 18.3753 98.6042 17.8153C99 17.2553 99.5525 16.826 100.262 16.5273C100.971 16.2212 101.807 16.0681 102.771 16.0681C103.711 16.0681 104.544 16.2137 105.268 16.5049C106 16.7961 106.59 17.2105 107.038 17.7481C107.486 18.2857 107.762 18.9166 107.867 19.6409L105.111 20.1337C105.044 19.6185 104.809 19.2116 104.406 18.9129C104.01 18.6142 103.48 18.4462 102.815 18.4089C102.181 18.3716 101.669 18.4686 101.281 18.7001C100.893 18.9241 100.699 19.2414 100.699 19.6521C100.699 19.8836 100.777 20.0814 100.934 20.2457C101.091 20.41 101.404 20.5742 101.875 20.7385C102.353 20.9028 103.062 21.1044 104.003 21.3433C104.966 21.5897 105.735 21.8734 106.31 22.1945C106.892 22.5081 107.31 22.8852 107.564 23.3257C107.826 23.7662 107.956 24.3001 107.956 24.9273C107.956 26.1444 107.512 27.1001 106.623 27.7945C105.742 28.4889 104.522 28.8361 102.961 28.8361Z" fill="#CCFFFA"/>
<path d="M88.8047 28.8473C87.9087 28.8473 87.1695 28.6979 86.5871 28.3993C86.0047 28.1006 85.5418 27.7198 85.1983 27.2569C84.8549 26.7939 84.601 26.3011 84.4367 25.7785C84.2725 25.2558 84.1642 24.763 84.1119 24.3001C84.0671 23.8297 84.0447 23.4489 84.0447 23.1577V16.4041H86.7775V22.2281C86.7775 22.6014 86.8037 23.0233 86.8559 23.4937C86.9082 23.9566 87.0277 24.4046 87.2143 24.8377C87.4085 25.2633 87.6922 25.6142 88.0655 25.8905C88.4463 26.1667 88.9578 26.3049 89.5999 26.3049C89.9434 26.3049 90.2831 26.2489 90.6191 26.1369C90.9551 26.0249 91.2575 25.8345 91.5263 25.5657C91.8026 25.2894 92.0229 24.9123 92.1871 24.4345C92.3514 23.9566 92.4335 23.3518 92.4335 22.6201L94.0351 23.3033C94.0351 24.3337 93.8335 25.267 93.4303 26.1033C93.0346 26.9395 92.4485 27.6078 91.6719 28.1081C90.8954 28.6009 89.9397 28.8473 88.8047 28.8473ZM92.7583 28.5001V24.7481H92.4335V16.4041H95.1439V28.5001H92.7583Z" fill="#CCFFFA"/>
<path d="M75.1579 28.5001L70.7675 16.4041H73.4667L76.5131 25.1737L79.5483 16.4041H82.2587L77.8683 28.5001H75.1579Z" fill="#CCFFFA"/>
<path d="M63.8206 28.8361C62.611 28.8361 61.5544 28.5636 60.651 28.0185C59.7475 27.4734 59.0456 26.723 58.5454 25.7673C58.0526 24.8041 57.8062 23.699 57.8062 22.4521C57.8062 21.1828 58.06 20.0702 58.5678 19.1145C59.0755 18.1588 59.7811 17.4121 60.6846 16.8745C61.588 16.3369 62.6334 16.0681 63.8206 16.0681C65.0376 16.0681 66.0979 16.3406 67.0014 16.8857C67.9048 17.4308 68.6067 18.1849 69.107 19.1481C69.6072 20.1038 69.8574 21.2052 69.8574 22.4521C69.8574 23.7065 69.6035 24.8153 69.0958 25.7785C68.5955 26.7342 67.8936 27.4846 66.9902 28.0297C66.0867 28.5673 65.0302 28.8361 63.8206 28.8361ZM63.8206 26.3049C64.8958 26.3049 65.6947 25.9465 66.2174 25.2297C66.74 24.5129 67.0014 23.587 67.0014 22.4521C67.0014 21.2798 66.7363 20.3465 66.2062 19.6521C65.676 18.9502 64.8808 18.5993 63.8206 18.5993C63.0963 18.5993 62.499 18.7636 62.0286 19.0921C61.5656 19.4132 61.2222 19.8649 60.9982 20.4473C60.7742 21.0222 60.6622 21.6905 60.6622 22.4521C60.6622 23.6244 60.9272 24.5614 61.4574 25.2633C61.995 25.9577 62.7827 26.3049 63.8206 26.3049Z" fill="#CCFFFA"/>
<path d="M42.4 28.5001V12.3721H45.1328L52.6144 23.7401V12.3721H55.3472V28.5001H52.6144L45.1328 17.1321V28.5001H42.4Z" fill="#CCFFFA"/>
<path fill-rule="evenodd" clip-rule="evenodd" d="M34.0001 12.5L20.0001 4.5L6.00012 12.5V28.5L20.0001 36.5L34.0001 28.5V12.5ZM20.0001 31.5V9.5L10.0001 15V26L20.0001 31.5Z" fill="#CCFFFA"/>
<path d="M20.0001 4.5L34.0001 12.5V28.5L20.0001 36.5V4.5Z" fill="#CCFFFA"/>
</svg>
